<svg width="19" height="25" viewBox="0 0 19 25" fill="none" xmlns="http://www.w3.org/2000/svg">
<path opacity="0.5" fill-rule="evenodd" clip-rule="evenodd" d="M8.28336 6.0598L4.5461 9.79854L2.55957 7.81201L9.55957 0.812012L16.5596 7.81201L14.573 9.79854L10.8358 6.0598L10.8358 16.812L8.28336 16.812L8.28336 6.0598ZM3.25781 12.077L3.18145 20.8266C3.17745 21.2843 3.51336 21.5796 3.83664 21.5824L15.1303 21.6809C15.4536 21.6838 15.7946 21.3944 15.7986 20.9367L15.875 12.1871L18.3161 12.2084L18.2397 20.958C18.2244 22.7094 16.8643 24.1962 15.1085 24.1808L3.81483 24.0823C2.059 24.067 0.72508 22.5567 0.740364 20.8053L0.816722 12.0557L3.25781 12.077ZM1.56015 12.8122L2.50129 12.8204L2.43148 20.8201C2.42425 21.6485 3.05043 22.3255 3.8301 22.3324L15.1238 22.4309C15.2441 22.432 15.3611 22.417 15.4729 22.3879C15.361 22.417 15.244 22.432 15.1235 22.431L3.82984 22.3324C3.05017 22.3256 2.42398 21.6486 2.43121 20.8202L2.50103 12.8205L1.56015 12.8123L1.56015 12.8122ZM17.5593 12.9519L16.6184 12.9437L16.6184 12.9436L17.5595 12.9518L17.4897 20.9515C17.4803 22.0316 16.8275 22.9461 15.9216 23.2876C16.8274 22.946 17.48 22.0316 17.4895 20.9516L17.5593 12.9519Z" fill="black" fill-opacity="0.83"/>
</svg>
