<svg preserveAspectRatio="none" viewBox="0 0 1440 901" fill="none" xmlns="http://www.w3.org/2000/svg">
<path fill-rule="evenodd" clip-rule="evenodd" d="M1399.05 853.426C1394.15 879.926 1370.92 900 1343 900C1121.41 900 318.594 900 97 900C69.0801 900 45.8488 879.926 40.9514 853.426V853.427L0 701V199L42.0849 41.6702V41.6709C48.7799 17.6357 70.8304 0 97 0C318.594 0 1121.41 0 1343 0C1369.25 0 1391.36 17.7461 1397.98 41.8939V41.8927L1397.99 41.9363C1398.04 42.1346 1398.09 42.3333 1398.15 42.5323L1440 199V701L1399.05 853.427V853.426Z" fill="#F59D19"/>
<path fill-rule="evenodd" clip-rule="evenodd" d="M1399.05 853.441C1394.15 879.941 1370.92 900.014 1343 900.014C1121.41 900.014 318.594 900.014 97 900.014C69.0801 900.014 45.8488 879.941 40.9514 853.441V853.441L0 701.015H1440L1399.05 853.441V853.441H1399.05Z" fill="#FFA929"/>
<path fill-rule="evenodd" clip-rule="evenodd" d="M1440 199H0L42.0851 41.6702V41.6709C48.7799 17.6357 70.8304 0 97 0C318.594 0 1121.41 0 1343 0C1369.25 0 1391.36 17.7461 1397.98 41.8939V41.8927L1397.99 41.9364C1398.04 42.1346 1398.09 42.3333 1398.15 42.5323L1440 199H1440Z" fill="#F69300"/>
<path fill-rule="evenodd" clip-rule="evenodd" d="M99.3438 892.383C85.5524 892.383 72.326 886.904 62.5741 877.152C54.4938 869.072 49.3472 858.606 47.8204 847.409V847.408C47.6788 846.37 47.5686 845.328 47.4899 844.28L32.3438 700.883V198.883L47.5561 54.686C47.6022 54.1784 47.6557 53.6718 47.7164 53.1664L47.7167 53.1637C49.1017 41.6637 54.2996 30.8877 62.5741 22.6132C72.326 12.8613 85.5524 7.38281 99.3438 7.38281H569.35H511.849H1340.35C1354.14 7.38281 1367.37 12.8613 1377.12 22.6132C1385.39 30.8877 1390.59 41.6637 1391.97 53.1637L1391.97 53.1664C1392.04 53.6718 1392.09 54.1784 1392.14 54.686L1407.35 198.883V700.883L1392.2 844.28C1392.12 845.328 1392.01 846.37 1391.87 847.408L1391.87 847.409C1390.34 858.606 1385.2 869.072 1377.12 877.152C1367.37 886.904 1354.14 892.383 1340.35 892.383H99.3428H99.3438Z" fill="#D67A00"/>
<path fill-rule="evenodd" clip-rule="evenodd" d="M60.4688 62.039C60.4688 38.843 79.2727 20.0391 102.469 20.0391C300.586 20.0391 1140.35 20.0391 1338.47 20.0391C1361.66 20.0391 1380.47 38.843 1380.47 62.039C1380.47 207.978 1380.47 692.098 1380.47 838.037C1380.47 861.233 1361.66 880.037 1338.47 880.037C1140.35 880.037 300.586 880.037 102.469 880.037C79.2727 880.037 60.4688 861.233 60.4688 838.037C60.4688 692.098 60.4688 207.978 60.4688 62.039Z" fill="#F59D19"/>
</svg>
