<svg width="71" height="37" viewBox="0 0 71 37" fill="none" xmlns="http://www.w3.org/2000/svg">
<path fill-rule="evenodd" clip-rule="evenodd" d="M0 0.733276L7.77091e-08 2.51105C4.85682e-07 11.8444 6.31112 19.7058 14.8978 22.056L70.7556 36.9999L70.7556 0.733273L0 0.733276Z" fill="#F69300"/>
<path fill-rule="evenodd" clip-rule="evenodd" d="M2.75 0.733276L2.75 1.62217C2.75 6.52528 4.69848 11.2293 8.16515 14.696C11.1091 17.6364 14.9385 19.4852 19.0273 19.9795L19.0309 19.9795C19.2087 20.0008 19.39 20.0186 19.5714 20.0364L70.8389 25.4444L70.8389 0.733273L2.75 0.733276Z" fill="#D67A00"/>
<path fill-rule="evenodd" clip-rule="evenodd" d="M7 0.733276C7 8.98217 13.688 15.6666 21.9333 15.6666L70.6445 15.6666L70.6445 0.733274L7 0.733276Z" fill="#F59D19"/>
</svg>
