<svg xmlns="http://www.w3.org/2000/svg" width="31" height="31" viewBox="0 0 31 31"><g><g><path fill="#fff" d="M15.4 30.8c8.505 0 15.4-6.895 15.4-15.4S23.905 0 15.4 0 0 6.895 0 15.4s6.895 15.4 15.4 15.4z"/></g><g><path fill="#114358" d="M18.478 17.37c0 .27-.219.49-.488.49h-.521a.488.488 0 0 1 0-.977h.52c.27 0 .489.218.489.488zm-3.125 0c0 .27-.219.49-.488.49h-.521a.488.488 0 0 1 0-.977h.52c.27 0 .489.218.489.488zm3.125-2.083c0 .27-.219.489-.488.489h-.521a.488.488 0 0 1 0-.977h.52c.27 0 .489.219.489.489zm-3.125 0c0 .27-.219.489-.488.489h-.521a.488.488 0 0 1 0-.977h.52c.27 0 .489.219.489.489zm3.125-2.083c0 .27-.219.488-.488.488h-.521a.488.488 0 0 1 0-.976h.52c.27 0 .489.219.489.488zm-3.125 0c0 .27-.219.488-.488.488h-.521a.488.488 0 0 1 0-.976h.52c.27 0 .489.219.489.488zm3.125-2.083c0 .27-.219.488-.488.488h-.521a.488.488 0 0 1 0-.976h.52c.27 0 .489.218.489.488zm-3.125 0c0 .27-.219.488-.488.488h-.521a.488.488 0 0 1 0-.976h.52c.27 0 .489.218.489.488zm3.385-2.084c0 .27-.218.489-.488.489h-4.167a.488.488 0 0 1 0-.977h4.167c.27 0 .488.219.488.489zm5.762 9.896v3.679c0 .27-.219.488-.488.488H8.322a.488.488 0 0 1-.489-.488v-3.679c0-.27.219-.488.489-.488h.586v-1.074a.488.488 0 0 1 .976 0v1.074h1.628V6.922c0-.27.218-.489.488-.489h8.333c.27 0 .489.219.489.489v11.523h1.627v-1.074a.488.488 0 0 1 .977 0v1.074h.586c.27 0 .488.219.488.488zm-15.69 3.19h2.702v-2.701H8.81zm8.691 0v-1.139h-2.669v1.14zm2.344 0V7.41h-7.357v14.713h1.367v-1.627c0-.27.22-.488.489-.488h3.646c.27 0 .488.218.488.488v1.627zm3.678-2.701h-2.701v2.701h2.701z"/></g></g></svg>