<svg width="71" height="37" viewBox="0 0 71 37" fill="none" xmlns="http://www.w3.org/2000/svg">
<path fill-rule="evenodd" clip-rule="evenodd" d="M71 36.5013L71 34.7235C71 25.3902 64.6889 17.5288 56.1022 15.1785L0.244437 0.234615L0.244438 36.5013L71 36.5013Z" fill="#2F5121"/>
<path fill-rule="evenodd" clip-rule="evenodd" d="M68.25 36.5013L68.25 35.6124C68.25 30.7093 66.3015 26.0053 62.8349 22.5386C59.8909 19.5982 56.0615 17.7493 51.9727 17.2551L51.9691 17.2551C51.7913 17.2338 51.61 17.2159 51.4286 17.1982L0.161101 11.7902L0.161102 36.5013L68.25 36.5013Z" fill="#1F4310"/>
<path fill-rule="evenodd" clip-rule="evenodd" d="M64 36.5013C64 28.2524 57.312 21.5679 49.0667 21.5679L0.355548 21.5679L0.355549 36.5013L64 36.5013Z" fill="#255A0F"/>
</svg>
