<svg xmlns="http://www.w3.org/2000/svg" width="31" height="31" viewBox="0 0 31 31"><g><g><path fill="#fff" d="M15.4 30.8c8.505 0 15.4-6.895 15.4-15.4S23.905 0 15.4 0 0 6.895 0 15.4s6.895 15.4 15.4 15.4z"/></g><g><path fill="#114358" d="M23.23 13.914c-.026.003-.05.006-.076.006a.447.447 0 0 1-.444-.373 7.551 7.551 0 0 0-2.123-4.097 7.574 7.574 0 0 0-4.097-2.123.448.448 0 1 1 .147-.887 8.458 8.458 0 0 1 4.583 2.377 8.458 8.458 0 0 1 2.377 4.583.442.442 0 0 1-.367.514zM15.994 9.67a.452.452 0 0 1 .52-.366c1.056.18 2.02.68 2.783 1.443a5.141 5.141 0 0 1 1.443 2.783.45.45 0 0 1-.37.52.447.447 0 0 1-.52-.367 4.249 4.249 0 0 0-1.193-2.3 4.227 4.227 0 0 0-2.3-1.193.445.445 0 0 1-.363-.52zm6.14 8.384c.336.333.513.73.513 1.143 0 .41-.173.81-.503 1.153-.144.15-.29.294-.434.43-.21.204-.41.394-.583.604-.003.006-.01.01-.013.016-.507.55-1.154.827-1.924.827-.066 0-.14-.003-.21-.007-1.143-.073-2.166-.503-2.933-.866a15.686 15.686 0 0 1-5.223-4.09c-1.204-1.447-2.01-2.797-2.55-4.254-.22-.593-.507-1.5-.427-2.473a2.439 2.439 0 0 1 .723-1.55l1.134-1.143.006-.007c.334-.32.727-.49 1.134-.49.406 0 .793.17 1.116.49.217.2.427.413.627.62.1.107.207.213.31.317l.91.91c.7.7.7 1.606 0 2.306l-.28.284c-.247.25-.5.51-.773.76.203.45.483.893.9 1.42.86 1.056 1.756 1.873 2.743 2.5.097.06.21.116.33.176.083.044.17.087.257.134l1.053-1.05c.337-.337.73-.514 1.14-.514.413 0 .803.18 1.127.517zm-.64.63L19.65 16.84c-.103-.113-.273-.243-.48-.243-.21 0-.39.137-.503.25l-1.14 1.14c-.057.057-.23.23-.507.23a.723.723 0 0 1-.33-.083c-.013-.007-.026-.017-.04-.024a4.236 4.236 0 0 0-.33-.176c-.133-.067-.273-.137-.41-.224-1.07-.676-2.04-1.56-2.96-2.693l-.003-.003c-.507-.644-.84-1.184-1.077-1.757l-.01-.03c-.06-.19-.113-.47.174-.757.003-.006.01-.01.016-.016.29-.26.557-.527.837-.814.097-.093.19-.19.287-.286.353-.354.353-.68 0-1.034l-.91-.91c-.107-.11-.214-.216-.317-.323a16.83 16.83 0 0 0-.6-.597l-.01-.01c-.107-.106-.277-.233-.487-.233-.17 0-.343.083-.506.237L9.207 9.62a1.53 1.53 0 0 0-.46.99c-.05.61.063 1.257.373 2.087.504 1.36 1.264 2.627 2.4 3.997a14.807 14.807 0 0 0 4.92 3.853c.69.33 1.61.717 2.6.78.05.003.104.003.154.003.52 0 .916-.17 1.253-.53.207-.243.427-.46.643-.666.144-.14.277-.267.407-.407-.003.003-.003 0 0 0 .34-.353.34-.703-.003-1.043z"/></g></g></svg>