<svg width="71" height="37" viewBox="0 0 71 37" fill="none" xmlns="http://www.w3.org/2000/svg">
<path fill-rule="evenodd" clip-rule="evenodd" d="M71 0.733276L71 2.51105C71 11.8444 64.6889 19.7058 56.1022 22.056L0.24444 36.9999L0.244438 0.733279L71 0.733276Z" fill="#D80000"/>
<path fill-rule="evenodd" clip-rule="evenodd" d="M68.25 0.733276L68.25 1.62217C68.25 6.52528 66.3015 11.2293 62.8349 14.696C59.8909 17.6364 56.0615 19.4852 51.9727 19.9795L51.9691 19.9795C51.7913 20.0008 51.61 20.0186 51.4286 20.0364L0.161103 25.4444L0.161102 0.733279L68.25 0.733276Z" fill="#9F0000"/>
<path fill-rule="evenodd" clip-rule="evenodd" d="M64 0.733276C64 8.98217 57.312 15.6666 49.0667 15.6666L0.35555 15.6666L0.355549 0.733279L64 0.733276Z" fill="#BF0000"/>
</svg>
