<svg width="71" height="37" viewBox="0 0 71 37" fill="none" xmlns="http://www.w3.org/2000/svg">
<path fill-rule="evenodd" clip-rule="evenodd" d="M0 36.5013L-7.77091e-08 34.7235C-4.85682e-07 25.3902 6.31112 17.5288 14.8978 15.1785L70.7556 0.234608L70.7556 36.5013L0 36.5013Z" fill="#F69300"/>
<path fill-rule="evenodd" clip-rule="evenodd" d="M2.75 36.5013L2.75 35.6124C2.75 30.7093 4.69848 26.0053 8.16515 22.5386C11.1091 19.5982 14.9385 17.7493 19.0273 17.2551L19.0309 17.2551C19.2087 17.2338 19.39 17.2159 19.5714 17.1982L70.8389 11.7902L70.8389 36.5013L2.75 36.5013Z" fill="#D67A00"/>
<path fill-rule="evenodd" clip-rule="evenodd" d="M7 36.5013C7 28.2524 13.688 21.5679 21.9333 21.5679L70.6445 21.5679L70.6445 36.5013L7 36.5013Z" fill="#F59D19"/>
</svg>
