<svg xmlns="http://www.w3.org/2000/svg" width="31" height="31" viewBox="0 0 31 31"><g><g><path fill="#fff" d="M15.4 30.8c8.505 0 15.4-6.895 15.4-15.4S23.905 0 15.4 0 0 6.895 0 15.4s6.895 15.4 15.4 15.4z"/></g><g><path fill="#114358" d="M15.602 14.202c-2.001 0-3.63-1.628-3.63-3.63a3.633 3.633 0 0 1 3.63-3.628c2 0 3.628 1.628 3.628 3.629a3.633 3.633 0 0 1-3.628 3.629zm6.082 2.519a8.569 8.569 0 0 0-3.269-2.05 4.971 4.971 0 0 0 2.16-4.098A4.978 4.978 0 0 0 15.601 5.6a4.978 4.978 0 0 0-4.973 4.973c0 1.698.856 3.2 2.159 4.098a8.569 8.569 0 0 0-3.269 2.05A8.545 8.545 0 0 0 7 22.803h1.344c0-4.002 3.256-7.257 7.258-7.257 4.001 0 7.257 3.255 7.257 7.257h1.344a8.545 8.545 0 0 0-2.52-6.082z"/></g></g></svg>