<svg width="49" height="35" viewBox="0 0 49 35" fill="none" xmlns="http://www.w3.org/2000/svg">
<path fill-rule="evenodd" clip-rule="evenodd" d="M38.4399 33.3831L37 31.1587C41.7023 28.1136 44.5115 22.9634 44.5115 17.3831C44.5115 11.8036 41.7032 6.65338 37.0009 3.60832L38.4408 1.38306C43.9019 4.91928 47.1617 10.9007 47.1617 17.3831C47.1617 23.8654 43.9011 29.8477 38.4399 33.3831ZM6.40548 12.9634L15.9072 4.31055V30.4554L6.40548 21.8026H1V12.9634H6.40548ZM31.3604 28.4263L30 26.1525C33.0724 24.3124 34.9823 20.9528 34.9823 17.3831C34.9823 13.8142 33.0733 10.4537 30 8.61362L31.3604 6.33977C35.2297 8.65514 37.6325 12.8866 37.6325 17.3831C37.6325 21.8795 35.2297 26.111 31.3604 28.4263ZM23.9332 21.0635L25.018 23.4822C26.1935 22.9537 27.1915 22.0971 27.8919 21.0152C28.5924 19.9333 28.9656 18.6721 28.9668 17.3833C28.9684 16.0697 28.5822 14.7849 27.8564 13.6899C27.1307 12.595 26.0978 11.7388 24.8873 11.2287L23.8555 13.6686C24.5858 13.9768 25.2089 14.4937 25.6467 15.1545C26.0845 15.8153 26.3176 16.5906 26.3166 17.3833C26.3161 18.1611 26.0909 18.9223 25.6681 19.5751C25.2452 20.228 24.6428 20.7449 23.9332 21.0635Z" fill="white"/>
<path fill-rule="evenodd" clip-rule="evenodd" d="M35.6172 30.8628L36.4564 30.3193C40.8756 27.4576 43.5115 22.6226 43.5115 17.3831C43.5115 12.1444 40.8764 7.3094 36.4573 4.44773L35.6182 3.90436L38.1447 0L38.9843 0.543697C44.7289 4.26345 48.1617 10.5602 48.1617 17.3831C48.1617 24.206 44.728 30.5037 38.9834 34.2225L38.1439 34.766L35.6172 30.8628ZM16.9072 2.04741V32.7186L6.01838 22.8026H0V11.9634H6.01838L16.9072 2.04741ZM6.40548 12.9634H1V21.8026H6.40548L15.9072 30.4555V4.31058L6.40548 12.9634ZM28.6287 25.8082L29.4862 25.2946C32.2586 23.6342 33.9823 20.5996 33.9823 17.3831C33.9823 14.1673 32.2593 11.1319 29.4863 9.47163L28.6286 8.9581L31.0157 4.96818L31.8739 5.48171C36.044 7.97709 38.6325 12.5338 38.6325 17.3831C38.6325 22.2323 36.044 26.7891 31.8739 29.2845L31.0157 29.798L28.6287 25.8082ZM24.5152 24.8047L22.6117 20.5607L23.5236 20.1513C24.0574 19.9116 24.5106 19.5228 24.8287 19.0316C25.1468 18.5404 25.3162 17.9678 25.3166 17.3827C25.3173 16.7868 25.1422 16.2035 24.8131 15.7068C24.484 15.2101 24.0156 14.8216 23.4667 14.59L22.5446 14.2009L24.3552 9.91934L25.2756 10.3072C26.6676 10.8938 27.8554 11.8784 28.6899 13.1375C29.5245 14.3966 29.9687 15.874 29.9668 17.3846C29.9668 17.3847 29.9668 17.3845 29.9668 17.3846C29.9654 18.8659 29.5364 20.3153 28.7314 21.5587C27.9262 22.8022 26.7792 23.7868 25.4281 24.3943L24.5152 24.8047ZM25.7794 11.6865L25.8083 11.6182L24.9025 11.2352C25.2068 11.3643 25.4998 11.5153 25.7794 11.6865ZM24.245 12.7476C24.2452 12.7477 24.2447 12.7475 24.245 12.7476V12.7476ZM24.6088 22.5698C24.6091 22.5697 24.6085 22.5699 24.6088 22.5698V22.5698ZM25.8993 23.0036L25.9304 23.073L25.018 23.4823C25.3246 23.3444 25.6191 23.1843 25.8993 23.0036ZM38.4399 33.3831C38.721 33.2011 38.9962 33.0127 39.2654 32.8181C44.228 29.2307 47.1617 23.5318 47.1617 17.3831C47.1617 11.2343 44.2288 5.53624 39.2663 1.94816C38.997 1.75351 38.7218 1.56506 38.4408 1.38309L37.0009 3.60835C41.7032 6.65341 44.5115 11.8036 44.5115 17.3831C44.5115 22.9635 41.7023 28.1137 37 31.1587L38.4399 33.3831ZM31.3604 28.4264C31.648 28.2543 31.9274 28.0717 32.1983 27.8791C35.5735 25.4807 37.6325 21.5454 37.6325 17.3831C37.6325 13.2208 35.5735 9.28552 32.1983 6.88704C31.9274 6.6945 31.648 6.51186 31.3604 6.3398L30 8.61366C33.0733 10.4538 34.9823 13.8142 34.9823 17.3831C34.9823 20.9529 33.0724 24.3124 30 26.1525L31.3604 28.4264Z" fill="white"/>
</svg>
